<?xml version="1.0" encoding="iso-8859-1"?>
<!-- Uploaded to: SVG Repo, www.svgrepo.com, Generator: SVG Repo Mixer Tools -->
<svg fill="#000000" version="1.1" id="Layer_1" xmlns="http://www.w3.org/2000/svg"
    xmlns:xlink="http://www.w3.org/1999/xlink" viewBox="0 0 512 512" xml:space="preserve">
    <g>
        <g>
            <polygon
                points="277.226,267.067 256,284.048 234.774,267.067 224.981,279.305 256,304.12 287.019,279.305 		" />
        </g>
    </g>
    <g>
        <g>
            <polygon
                points="172.736,267.067 151.51,284.048 130.284,267.067 120.491,279.305 151.51,304.12 182.529,279.305 		" />
        </g>
    </g>
    <g>
        <g>
            <polygon
                points="68.246,267.067 47.02,284.048 25.794,267.067 16.002,279.305 47.02,304.12 78.039,279.305 		" />
        </g>
    </g>
    <g>
        <g>
            <polygon
                points="381.716,267.067 360.49,284.048 339.264,267.067 329.471,279.305 360.49,304.12 391.509,279.305 		" />
        </g>
    </g>
    <g>
        <g>
            <polygon
                points="486.206,267.067 464.98,284.048 443.754,267.067 433.961,279.305 464.98,304.12 495.998,279.305 		" />
        </g>
    </g>
    <g>
        <g>
            <polygon
                points="277.226,361.107 256,378.089 234.774,361.107 224.981,373.346 256,398.16 287.019,373.346 		" />
        </g>
    </g>
    <g>
        <g>
            <polygon
                points="172.736,361.107 151.51,378.089 130.284,361.107 120.491,373.346 151.51,398.16 182.529,373.346 		" />
        </g>
    </g>
    <g>
        <g>
            <polygon
                points="68.246,361.107 47.02,378.089 25.794,361.107 16.002,373.346 47.02,398.16 78.039,373.346 		" />
        </g>
    </g>
    <g>
        <g>
            <polygon
                points="381.716,361.107 360.49,378.089 339.264,361.107 329.471,373.346 360.49,398.16 391.509,373.346 		" />
        </g>
    </g>
    <g>
        <g>
            <polygon
                points="486.206,361.107 464.98,378.089 443.754,361.107 433.961,373.346 464.98,398.16 495.998,373.346 		" />
        </g>
    </g>
    <g>
        <g>
            <polygon
                points="277.226,455.148 256,472.13 234.774,455.148 224.981,467.387 256,492.201 287.019,467.387 		" />
        </g>
    </g>
    <g>
        <g>
            <polygon
                points="172.736,455.148 151.51,472.13 130.284,455.148 120.491,467.387 151.51,492.201 182.529,467.387 		" />
        </g>
    </g>
    <g>
        <g>
            <polygon
                points="68.246,455.148 47.02,472.13 25.794,455.148 16.002,467.387 47.02,492.201 78.039,467.387 		" />
        </g>
    </g>
    <g>
        <g>
            <polygon
                points="381.716,455.148 360.49,472.13 339.264,455.148 329.471,467.387 360.49,492.201 391.509,467.387 		" />
        </g>
    </g>
    <g>
        <g>
            <polygon
                points="486.206,455.148 464.98,472.13 443.754,455.148 433.961,467.387 464.98,492.201 495.998,467.387 		" />
        </g>
    </g>
    <g>
        <g>
            <rect y="416.862" width="512" height="15.673" />
        </g>
    </g>
    <g>
        <g>
            <rect y="322.821" width="512" height="15.673" />
        </g>
    </g>
    <g>
        <g>
            <path d="M512,192.207v-15.673H0v15.673h39.184v36.571H0v15.673h512v-15.673h-39.184v-36.571H512z M143.673,228.778H54.857v-36.571
			h88.816V228.778z M248.163,228.778h-88.816v-36.571h88.816V228.778z M352.653,228.778h-88.816v-36.571h88.816V228.778z
			 M457.143,228.778h-88.816v-36.571h88.816V228.778z" />
        </g>
    </g>
    <g>
        <g>
            <path d="M256,19.799c-36.01,0-65.306,29.297-65.306,65.306S219.99,150.411,256,150.411s65.306-29.297,65.306-65.306
			S292.01,19.799,256,19.799z M256,134.737c-27.367,0-49.633-22.266-49.633-49.633S228.633,35.472,256,35.472
			c27.367,0,49.633,22.266,49.633,49.633S283.367,134.737,256,134.737z" />
        </g>
    </g>
    <g>
        <g>
            <path d="M444.082,64.207l-1.109-7.758c-10.65,1.521-26.185,6.3-35.463,15.703c-9.279-9.403-24.813-14.181-35.463-15.703
			l-2.216,15.517c6.304,0.9,29.842,6.656,29.842,18.364h15.673c0-5.186,4.472-9.757,13.292-13.59
			c8.089-3.514,16.479-4.765,16.563-4.776L444.082,64.207z" />
        </g>
    </g>
    <g>
        <g>
            <path d="M120.163,95.554l-1.109-7.758c-10.65,1.521-26.184,6.3-35.463,15.703c-9.279-9.403-24.813-14.181-35.463-15.703
			l-2.216,15.517c6.304,0.9,29.842,6.656,29.842,18.364h15.673c0-5.186,4.472-9.757,13.292-13.59
			c8.089-3.514,16.479-4.765,16.563-4.776L120.163,95.554z" />
        </g>
    </g>
</svg>