<?xml version="1.0" encoding="iso-8859-1"?>
<!-- Uploaded to: SVG Repo, www.svgrepo.com, Generator: SVG Repo Mixer Tools -->
<svg fill="#000000" height="800px" width="800px" version="1.1" id="Layer_1" xmlns="http://www.w3.org/2000/svg"
    xmlns:xlink="http://www.w3.org/1999/xlink" viewBox="0 0 512.005 512.005" xml:space="preserve">
    <g>
        <g>
            <path
                d="M464.475,123.797c-10.7-22.386-25.309-42.919-43.421-61.031C385.411,27.123,340.317,5.11,294.075,0.78
			c-46.8-4.385-89.17,9.814-119.324,39.967c-37.205,37.205-54.211,83.564-49.178,134.061c4.478,44.931,26.794,92.206,62.835,133.114
			c4.556,5.171,4.288,13.057-0.609,17.954l-19.915,19.915c-2.028-0.818-4.212-1.252-6.466-1.252c-4.617,0-8.957,1.798-12.221,5.062
			l-41.944,41.944c-3.067,3.068-3.067,8.039,0,11.107c3.068,3.066,8.039,3.066,11.106,0l41.944-41.944
			c0.381-0.381,0.816-0.462,1.114-0.462c0.297,0,0.732,0.081,1.113,0.462l0.771,0.771l30.862,30.862l3.066,3.066
			c0.381,0.381,0.462,0.816,0.462,1.114s-0.081,0.733-0.462,1.114l-98.208,98.208c-0.381,0.381-0.816,0.462-1.113,0.462
			s-0.732-0.081-1.114-0.462l-34.698-34.699c-0.381-0.381-0.462-0.816-0.462-1.113c0-0.298,0.081-0.733,0.462-1.114l35.148-35.148
			c3.067-3.068,3.067-8.039,0-11.106c-3.068-3.066-8.039-3.066-11.106,0l-35.148,35.148c-3.264,3.265-5.061,7.605-5.061,12.221
			c0,4.615,1.798,8.956,5.063,12.22l34.699,34.699c3.369,3.368,7.794,5.053,12.22,5.053c4.426,0,8.851-1.685,12.22-5.053
			l98.208-98.208c3.264-3.265,5.062-7.605,5.062-12.221c0-3.42-0.992-6.684-2.83-9.476l38.166-38.169
			c12.726-12.724,13.576-32.751,1.979-46.585c-3.759-4.482-7.543-9.504-11.247-14.923c-0.261-0.382-0.554-0.736-0.873-1.061
			c-25.092-31.937-40.576-68.544-43.623-103.165c-3.029-34.406,6.569-64.62,27.026-85.077c3.067-3.068,3.067-8.039,0-11.107
			c-3.068-3.066-8.039-3.066-11.106,0c-23.799,23.799-35.008,58.446-31.565,97.56c3.335,37.878,20.191,77.721,47.467,112.187
			c0.066,0.085,0.136,0.168,0.206,0.249c3.835,5.565,7.762,10.752,11.679,15.425c6.328,7.548,5.878,18.464-1.048,25.388
			l-37.911,37.912l-19.756-19.756l18.942-18.94c10.743-10.744,11.308-28.069,1.287-39.443
			c-56.181-63.768-93.647-166.376-14.334-245.686c26.788-26.789,64.698-39.369,106.753-35.437
			c42.606,3.989,84.277,24.393,117.339,57.455c16.724,16.723,30.223,35.639,40.133,56.233c-2.234-2.409-4.547-4.81-6.878-7.141
			c-30.705-30.704-66.935-52.232-104.773-62.253c-37.343-9.889-73.451-7.279-101.675,7.351c-3.85,1.996-5.353,6.736-3.357,10.586
			c1.995,3.852,6.737,5.354,10.586,3.357c24.749-12.829,56.861-14.997,90.424-6.112c34.66,9.181,69.352,29.84,97.69,58.179
			c2.316,2.315,4.61,4.702,6.822,7.096c5.369,5.812,13.687,6.776,20.23,2.341C465.707,139.064,467.897,130.957,464.475,123.797z" />
        </g>
    </g>
</svg>